<svg xmlns="http://www.w3.org/2000/svg" width="48" height="48" viewBox="0 0 48 48" fill="none">
  <!-- Moby-Data whale favicon -->
  <!-- Spout -->
  <path d="M28 8 C28 12, 25 13, 25 16" stroke="#a5b4fc" stroke-width="2.5" stroke-linecap="round" fill="none"/>
  <path d="M32 6 C32 10, 29 12, 28 16" stroke="#a5b4fc" stroke-width="2.5" stroke-linecap="round" fill="none"/>
  <circle cx="24" cy="5" r="2" fill="#c7d2fe"/>
  <circle cx="30" cy="3" r="1.5" fill="#c7d2fe"/>
  <circle cx="34" cy="5" r="1.8" fill="#c7d2fe"/>
  <!-- Body -->
  <path d="M6 28 C6 20, 14 14, 26 14 C36 14, 42 18, 42 26 C42 34, 34 40, 24 40 C14 40, 6 36, 6 28Z" fill="#6366f1"/>
  <!-- Belly -->
  <path d="M12 30 C12 26, 18 23, 26 23 C33 23, 38 25, 38 28 C38 33, 32 37, 24 37 C16 37, 12 34, 12 30Z" fill="#818cf8"/>
  <!-- Eye -->
  <circle cx="35" cy="23" r="3" fill="white"/>
  <circle cx="36" cy="22.5" r="1.5" fill="#1e1b4b"/>
  <!-- Mouth -->
  <path d="M38 28 C35 30, 30 31, 26 30" stroke="#4f46e5" stroke-width="1.5" stroke-linecap="round" fill="none"/>
  <!-- Tail -->
  <path d="M6 28 C2 22, 1 18, 5 14" stroke="#6366f1" stroke-width="3" stroke-linecap="round" fill="none"/>
  <path d="M6 28 C2 34, 1 38, 5 42" stroke="#6366f1" stroke-width="3" stroke-linecap="round" fill="none"/>
  <path d="M5 14 C7 16, 6 20, 6 24" fill="#6366f1"/>
  <path d="M5 42 C7 40, 6 36, 6 32" fill="#6366f1"/>
  <!-- Fin -->
  <path d="M22 18 C24 12, 28 11, 26 17" fill="#4f46e5"/>
  <!-- Data sparkle dots -->
  <circle cx="18" cy="26" r="1.5" fill="#c7d2fe" opacity="0.5"/>
  <circle cx="28" cy="25" r="1" fill="#c7d2fe" opacity="0.4"/>
  <circle cx="22" cy="32" r="1.2" fill="#c7d2fe" opacity="0.3"/>
  <circle cx="32" cy="30" r="0.8" fill="#c7d2fe" opacity="0.4"/>
</svg>
