<svg xmlns="http://www.w3.org/2000/svg" width="48" height="48" viewBox="0 0 48 48" fill="none">
  <!-- Moby-Data whale icon -->
  <!-- Body -->
  <ellipse cx="22" cy="26" rx="16" ry="12" fill="#6366f1" />
  <!-- Head bump -->
  <ellipse cx="35" cy="22" rx="8" ry="10" fill="#6366f1" />
  <!-- Belly -->
  <ellipse cx="22" cy="29" rx="13" ry="7" fill="#818cf8" />
  <!-- Eye -->
  <circle cx="37" cy="20" r="2.5" fill="white" />
  <circle cx="37.8" cy="19.5" r="1.2" fill="#1e1b4b" />
  <!-- Tail -->
  <path d="M6 20 C2 14, 2 10, 8 8 C5 16, 7 18, 6 20Z" fill="#6366f1" />
  <path d="M6 32 C2 38, 2 42, 8 44 C5 36, 7 34, 6 32Z" fill="#6366f1" />
  <!-- Spout -->
  <path d="M40 12 C41 8, 38 5, 36 3" stroke="#818cf8" stroke-width="2" stroke-linecap="round" fill="none" />
  <path d="M38 10 C40 6, 43 5, 44 3" stroke="#818cf8" stroke-width="2" stroke-linecap="round" fill="none" />
  <circle cx="35" cy="2" r="1.5" fill="#c7d2fe" />
  <circle cx="41" cy="3" r="1" fill="#c7d2fe" />
  <circle cx="44" cy="1.5" r="1.2" fill="#c7d2fe" />
  <!-- Data dots on body -->
  <circle cx="18" cy="24" r="1.5" fill="#c7d2fe" opacity="0.6" />
  <circle cx="24" cy="22" r="1" fill="#c7d2fe" opacity="0.5" />
  <circle cx="28" cy="26" r="1.3" fill="#c7d2fe" opacity="0.4" />
  <circle cx="15" cy="28" r="1" fill="#c7d2fe" opacity="0.5" />
  <circle cx="22" cy="30" r="0.8" fill="#c7d2fe" opacity="0.3" />
</svg>
